<svg style="position: absolute; width: 0; height: 0; overflow: hidden;" version="1.1"
xmlns="http://www.w3.org/2000/svg"
xmlns:xlink="http://www.w3.org/1999/xlink">

<defs>

<!-- Icon Cross -->
<symbol id="icon-cross" viewBox="0 0 50 50">
  <path d="M41.58 7L25 23.6 8.4 7.04 7 8.43 23.6 25 7.04 41.6l1.4 1.4L25 26.4l16.6 16.57 1.4-1.4L26.4 25 42.96 8.4z"/>
</symbol>

<!-- Caret Down Icon -->
<symbol id="icon-caret-down" viewBox="0 0 50 50">
  <path d="M2 13.5h46l-23 23z"/>
</symbol>

<!-- Angle Down -->
<symbol  id="icon-angle-down" viewBox="0 0 24 24">
  <path d="M0 7.33l2.829-2.83 9.175 9.339 9.167-9.339 2.829 2.83-11.996 12.17z"/>
</symbol>

<!-- For Selectors -->
<symbol id="icon-caret-up-down" viewBox="0 0 50 50">
  <path d="M6 27h38L25 46zM44 22H6L25 3z"/>
</symbol>


<!-- 
===========================
/**** Header Icons *******/
===========================
 -->
<!-- 1. Windows Icon -->
<symbol id="icon-window" viewBox="0 0 50 50">
  <path d="M2 2v20h20V2H2zm26 0v20h20V2H28zM2 28v20h20V28H2zm26 0v20h20V28H28z"/>
</symbol>

<!-- 2. Magnifier Icon -->
<symbol  id="icon-magnifier" viewBox="0 0 24 24">
  <path d="M23.822 20.88l-6.353-6.354c.93-1.465 1.467-3.2 1.467-5.059.001-5.219-4.247-9.467-9.468-9.467s-9.468 4.248-9.468 9.468c0 5.221 4.247 9.469 9.468 9.469 1.768 0 3.421-.487 4.839-1.333l6.396 6.396 3.119-3.12zm-20.294-11.412c0-3.273 2.665-5.938 5.939-5.938 3.275 0 5.94 2.664 5.94 5.938 0 3.275-2.665 5.939-5.94 5.939-3.274 0-5.939-2.664-5.939-5.939z"/>
</symbol>

<!-- 3. Plus Icon -->
<symbol id="icon-plus" viewBox="0 0 50 50">
  <path d="M31.213 18.924V.5H18.924v18.424H.5v12.309h18.424V49.5h12.299V31.213H49.5V18.924z"/>
<symbol>

<!-- 4. Bell Icon -->
<symbol  id="icon-bell2" viewBox="0 0 24 24">
  <path d="M15.137 3.945a2.103 2.103 0 0 1-1.041-1.82v-.003C14.097.95 13.158 0 12 0S9.903.95 9.903 2.122v.003a2.1 2.1 0 0 1-1.041 1.82C4.195 6.657 6.877 15.66 2 17.251V19h20v-1.749c-4.877-1.591-2.195-10.594-6.863-13.306zM12 1a1.001 1.001 0 0 1 0 2 1 1 0 0 1 0-2zm3 20c0 1.598-1.392 3-2.971 3S9 22.598 9 21h6z"/>
</symbol>

<symbol id="icon-h-dots" viewBox="0 0 50 50">
  <path d="M6.5 18.5A6.5 6.5 0 0 0 0 25a6.5 6.5 0 0 0 6.5 6.5A6.5 6.5 0 0 0 13 25a6.5 6.5 0 0 0-6.5-6.5zm18.5 0a6.5 6.5 0 0 0-6.5 6.5 6.5 6.5 0 0 0 6.5 6.5 6.5 6.5 0 0 0 6.5-6.5 6.5 6.5 0 0 0-6.5-6.5zm18.5 0A6.5 6.5 0 0 0 37 25a6.5 6.5 0 0 0 6.5 6.5A6.5 6.5 0 0 0 50 25a6.5 6.5 0 0 0-6.5-6.5z"/>
</symbol>

<symbol id="icon-v-dots" viewBox="0 0 50 50">
  <path d="M31.5 6.5A6.5 6.5 0 0 0 25 0a6.5 6.5 0 0 0-6.5 6.5A6.5 6.5 0 0 0 25 13a6.5 6.5 0 0 0 6.5-6.5zm0 18.5a6.5 6.5 0 0 0-6.5-6.5 6.5 6.5 0 0 0-6.5 6.5 6.5 6.5 0 0 0 6.5 6.5 6.5 6.5 0 0 0 6.5-6.5zm0 18.5A6.5 6.5 0 0 0 25 37a6.5 6.5 0 0 0-6.5 6.5A6.5 6.5 0 0 0 25 50a6.5 6.5 0 0 0 6.5-6.5z"/>
</symbol>


<!-- 
===========================
/**** Editing Icons *******/
===========================
 -->
<!-- Trash Icon -->
<symbol  id="icon-trash" viewBox="0 0 24 24">
  <path d="M3 6l3 18h12l3-18H3zm19-4v2H2V2h5.711c.9 0 1.631-1.099 1.631-2h5.316c0 .901.73 2 1.631 2H22z"/>
</symbol>

<!--  Edit -->
<symbol  id="icon-edit" viewBox="0 0 24 24">
  <path d="M22.804 7.093L8.697 21.347l-7.494 1.585 1.73-7.349L17.04 1.333z"/>
</symbol>
<symbol  id="icon-edit2" viewBox="0 0 24 24">
  <path d="M24.001 8.534L12.898 19.752 7 21l1.361-5.784L19.465 4l4.536 4.534zM.001 19L0 21h5v-2H.001z"/>
</symbol>

<!-- Icon Heart -->
<symbol id="icon-heart" viewBox="0 0 50 50">
  <path d="M24.08 43.33a1.251 1.251 0 0 0 1.87 0l16.48-18.46A11.29 11.29 0 0 0 45 17.7c0-6.3-5.24-11.45-11.7-11.45-3.16 0-6.1 1.22-8.3 3.4-2.18-2.17-5.14-3.4-8.32-3.4C10.24 6.25 5 11.4 5 17.7c0 2.6.9 5.15 2.62 7.23.16.2 12.64 14.14 16.46 18.4zm-7.4-34.58c2.9 0 5.58 1.3 7.33 3.56.5.62 1.5.62 2 0 1.74-2.25 4.4-3.55 7.3-3.55 5.08 0 9.2 4.02 9.2 8.95 0 2.05-.7 3.98-1.97 5.54L25 40.64c-5.7-6.4-15.2-17-15.5-17.35-1.3-1.62-2-3.55-2-5.6 0-4.93 4.12-8.95 9.18-8.95z"/>
</symbol>


<!-- 
===========================
/**** MENU ICONS *******/
===========================
 -->

<!-- Icon Menu -->
<symbol id="icon-menu" viewBox="0 0 50 50">
  <path d="M1 6.333h48V1H1zm48 37.334H1V49h48zm0-21.334H1v5.334h48z"/>
</symbol>

<!-- Icon Home -->
<symbol  id="icon-home" viewBox="0 0 24 24">
  <path d="M12 6.453l9 8.375V24h-6v-6H9v6H3v-9.172l9-8.375zm12 5.695L12 1 0 12.133l1.361 1.465L12 3.73l10.639 9.883L24 12.148z"/>
</symbol>

<symbol  id="icon-dashboard" viewBox="0 0 24 24">
  <path d="M12 2C5.373 2 0 7.373 0 14c0 2.583.575 5.344 2.599 8h18.753C23.375 19.344 24 16.583 24 14c0-6.627-5.373-12-12-12zm-.758 2.14a10.27 10.27 0 0 1 1.516 0v3.115a6.877 6.877 0 0 0-1.516 0V4.14zm-5.764 7.978l-2.88-1.193c.158-.479.352-.948.582-1.399l2.879 1.192a6.663 6.663 0 0 0-.581 1.4zm1.217-2.351L4.492 7.564a9.936 9.936 0 0 1 1.071-1.071l2.203 2.203a6.866 6.866 0 0 0-1.071 1.071zm.793-4.569a9.756 9.756 0 0 1 1.397-.586l1.205 2.874a6.764 6.764 0 0 0-1.397.586L7.488 5.198zM8.895 19a3.105 3.105 0 0 1 1.603-2.672L12 9.287l1.502 7.041A3.106 3.106 0 0 1 15.104 19H8.895zm4.989-11.522L15.077 4.6c.479.156.948.352 1.4.581l-1.193 2.878a6.794 6.794 0 0 0-1.4-.581zm2.349 1.218l2.203-2.203c.383.329.742.688 1.071 1.071l-2.203 2.203a6.78 6.78 0 0 0-1.071-1.071zm2.259 3.32a6.713 6.713 0 0 0-.603-1.39l2.86-1.238c.235.445.437.912.602 1.39l-2.859 1.238z"/>
</symbol>

<symbol id="icon-week" viewBox="0 0 50 50">
  <path d="M8.16 0c-.8.1-1.5.96-1.5 1.88v4.37h-5C.8 6.25 0 7.15 0 8.13v40C0 49.1.8 50 1.67 50h46.66c.88 0 1.67-.9 1.67-1.87v-40c0-.92-.68-1.78-1.5-1.88h-5.17V1.88c0-.92-.68-1.78-1.5-1.88H33.9C33 0 32.2.9 32.2 1.88v4.37H17.78V1.88C17.78.9 16.98 0 16.1 0H8.17zM9.5 2.84h5.44v3.4H9.5zm25.56 0h5.43V5.5h-5.44zM2.84 9.1h44.32v5.06H2.84zm0 7.9h44.32v30.16H2.84zm30.94 3.63c-.54-2.45-1-1.87-1-1.25v5c0 .65.53 1.25 1.1 1.25h7.8c.57 0 1.1-.6 1.1-1.25v-5c0-.62-.46-1.2-1-1.25H33.77v2.5zM8.23 30c-.55-2.44-1-1.87-1-1.25v5c0 .66.52 1.25 1.1 1.25h7.78c.6 0 1.12-.6 1.12-1.25v-5c0-.65-.53-1.25-1.1-1.25H8.2V30zM21 30c-.54-2.44-1-1.87-1-1.25v5c0 .66.53 1.25 1.1 1.25h7.8c.57 0 1.1-.6 1.1-1.25v-5c0-.65-.53-1.25-1.1-1.25H21V30zm12.78 0c-.54-2.44-1-1.87-1-1.25v5c0 .66.53 1.25 1.1 1.25h7.8c.57 0 1.1-.6 1.1-1.25v-5c0-.65-.53-1.25-1.1-1.25H33.77V30zM8.23 39.38c-.55-2.45-1-1.87-1-1.25v5c0 .65.52 1.25 1.1 1.25h7.78c.6 0 1.12-.6 1.12-1.25v-5c0-.66-.53-1.25-1.1-1.25H8.2v2.5z"/>
</symbol>

<symbol id="icon-week2" viewBox="0 0 512.001 512.001">
<path fill="#fff" d="M466.102 483.049H45.898c-19.64 0-35.562-15.922-35.562-35.562V102.404c0-19.64 15.922-35.562 35.562-35.562h420.203c19.64 0 35.562 15.922 35.562 35.562v345.085c-.001 19.64-15.921 35.56-35.561 35.56z"/>
  <path fill="#ffc843" d="M501.662 140.412H10.337V95.9c0-16.048 13.01-29.057 29.057-29.057h433.212c16.048 0 29.057 13.01 29.057 29.057l-.001 44.512z"/>
  <path fill="#76ffd9" d="M71.803 101.866h-3.002c-6.631 0-12.008-5.377-12.008-12.008V41.826c0-6.631 5.377-12.008 12.008-12.008h3.002c6.631 0 12.008 5.377 12.008 12.008v48.032c0 6.632-5.377 12.008-12.008 12.008z"/>
  <path fill="#5de0bf" d="M70.302 74.848c-7.461 0-13.509-6.048-13.509-13.509v27.018c0 7.461 6.048 13.509 13.509 13.509s13.509-6.048 13.509-13.509V61.339c0 7.461-6.048 13.509-13.509 13.509z"/>
  <path fill="#76ffd9" d="M440.547 101.866h-3.002c-6.631 0-12.008-5.377-12.008-12.008V41.826c0-6.631 5.377-12.008 12.008-12.008h3.002c6.631 0 12.008 5.377 12.008 12.008v48.032c0 6.632-5.377 12.008-12.008 12.008z"/>
  <path fill="#5de0bf" d="M439.046 74.848c-7.461 0-13.509-6.048-13.509-13.509v27.018c0 7.461 6.048 13.509 13.509 13.509s13.509-6.048 13.509-13.509V61.339c0 7.461-6.048 13.509-13.509 13.509z"/>
  <path fill="#434c54" d="M511.413 139.413l-.075-40.027c-.02-10.522-4.16-20.431-11.657-27.899-7.48-7.452-17.374-11.552-27.868-11.552h-.076l-8.506.016-.031-16.511c-.024-12.943-10.573-23.472-23.56-23.472-12.967.024-23.496 10.593-23.472 23.56l.031 16.511-321.212.604-.031-16.511C94.933 31.189 84.385 20.66 71.398 20.66c-12.967.024-23.496 10.593-23.472 23.56l.031 16.511-8.506.016C17.657 60.788-.041 78.553 0 100.347L.663 452.58c.041 21.77 17.764 39.453 39.526 39.452h.075l432.286-.813c21.794-.041 39.492-17.806 39.451-39.601l-.588-312.205zM439.686 34.978c4.681 0 8.497 3.809 8.506 8.49l.045 24.001-.001.015.001.015.045 24.001a8.452 8.452 0 0 1-2.481 6.019 8.451 8.451 0 0 1-6.01 2.503l-.017 7.505v-7.505c-4.681 0-8.496-3.809-8.505-8.49l-.09-48.032c-.008-4.691 3.8-8.514 8.507-8.522zm-374.27 3.195a8.458 8.458 0 0 1 6.026-2.503c4.681 0 8.496 3.809 8.505 8.49l.09 48.032c.009 4.69-3.8 8.513-8.49 8.522l-.017 7.505v-7.505c-4.681 0-8.497-3.809-8.506-8.49l-.043-24.002.001-.015-.001-.015-.045-24.001a8.451 8.451 0 0 1 2.48-6.018zm431.001 108.773l.572 304.701c.025 13.518-10.951 24.537-24.47 24.562l-432.286.813h-.046c-13.497 0-24.49-10.967-24.516-24.47l-.572-304.702-.028-15.01-.06-32.521c-.012-6.513 2.536-12.664 7.176-17.321 4.639-4.657 10.781-7.229 17.294-7.241l8.506-.016.031 16.511c.024 12.943 10.573 23.472 23.516 23.472h.045c12.967-.024 23.496-10.593 23.472-23.56l-.031-16.511 321.213-.603.031 16.511c.024 12.943 10.573 23.472 23.515 23.472h.045a23.364 23.364 0 0 0 16.615-6.919 23.363 23.363 0 0 0 6.857-16.641l-.031-16.511 8.506-.016h.047c6.495 0 12.629 2.548 17.274 7.176 4.657 4.639 7.229 10.781 7.241 17.294l.061 32.522.023 15.008z"/>
  <g fill="#5de0bf">
    <path d="M200.464 254.134l44.704-44.872c.022-.022.04-.046.062-.069a7.28 7.28 0 0 0 .432-.48c.077-.094.145-.193.216-.291.074-.099.151-.196.219-.299.075-.112.14-.229.208-.344.057-.095.116-.188.169-.286.062-.116.114-.235.169-.353.049-.104.101-.207.145-.313.047-.114.085-.231.126-.347.041-.115.085-.229.12-.347.035-.116.061-.234.09-.352.03-.12.063-.239.087-.361.026-.135.042-.27.061-.406.015-.107.035-.212.046-.321.024-.246.036-.493.036-.74v-.002a7.564 7.564 0 0 0-.039-.737c-.011-.114-.033-.225-.049-.338-.019-.129-.034-.258-.06-.386-.026-.129-.062-.254-.094-.381-.028-.11-.052-.221-.085-.33-.038-.125-.085-.245-.129-.367-.039-.108-.075-.218-.119-.324-.048-.115-.103-.224-.156-.336-.052-.11-.101-.221-.159-.329-.058-.107-.123-.209-.186-.313-.063-.106-.123-.213-.192-.316-.078-.116-.165-.226-.249-.338-.063-.083-.121-.17-.188-.251a7.403 7.403 0 0 0-.498-.549l-.002-.002c-.021-.021-.043-.037-.064-.057a7.44 7.44 0 0 0-.485-.437c-.084-.069-.173-.129-.259-.193-.109-.082-.217-.166-.331-.242-.103-.069-.21-.129-.316-.192-.104-.062-.206-.127-.313-.185-.109-.058-.22-.107-.331-.159-.111-.052-.22-.107-.334-.154-.109-.045-.22-.082-.331-.121-.12-.043-.238-.088-.36-.125-.112-.034-.226-.059-.339-.087-.124-.031-.246-.065-.372-.09-.131-.026-.263-.042-.395-.06-.11-.016-.218-.036-.329-.047a7.291 7.291 0 0 0-.627-.032c-.036 0-.071-.005-.107-.005H239.838l-88.05.165a7.505 7.505 0 0 0 .014 15.01h.015l69.935-.131-43.148 43.31c-.022.022-.04.046-.062.069a7.28 7.28 0 0 0-.432.48c-.077.094-.145.193-.216.291-.074.099-.151.196-.219.299-.075.112-.14.229-.208.344-.057.095-.116.188-.169.286-.062.116-.114.235-.169.353-.049.104-.101.207-.145.313-.047.114-.085.231-.126.347-.041.115-.085.229-.12.347-.035.115-.06.233-.089.35-.03.121-.064.24-.088.363-.026.133-.042.267-.06.401-.015.108-.036.215-.046.324a7.622 7.622 0 0 0-.036.74v.002c.001.246.014.492.039.737.011.113.033.222.049.333.019.131.034.262.061.392.025.126.06.248.092.372.029.113.054.227.088.339.037.121.083.238.126.357.04.112.077.224.123.335.046.11.1.215.15.322.054.115.105.23.166.343.054.101.117.197.175.296.067.111.13.224.203.333.072.107.153.209.23.312.069.092.134.187.208.277.156.19.321.372.495.545l.004.004c.038.038.08.07.119.107.138.132.278.263.426.384.094.077.192.144.288.215.1.074.197.151.301.22.11.074.225.138.338.205.097.058.191.118.291.171.115.061.232.113.349.168.105.049.208.101.315.146.113.047.229.085.344.126.116.042.23.086.348.121.114.035.231.06.346.089.121.031.241.064.365.089.131.026.264.042.396.061.11.016.218.036.329.047.243.024.486.036.73.037h.008c.049-.003.102 0 .153 0 39.94 0 72.471 32.455 72.546 72.412.075 40.003-32.408 72.609-72.412 72.684-19.122.045-37.15-7.294-50.816-20.637a7.505 7.505 0 0 0-10.487 10.739c16.455 16.067 38.169 24.908 61.164 24.908h.167c48.28-.091 87.484-39.443 87.393-87.723-.044-23.387-9.193-45.358-25.762-61.865-12.594-12.54-28.31-20.783-45.403-23.998zM351.428 203.756a7.564 7.564 0 0 0-.039-.737c-.011-.114-.033-.225-.049-.338-.019-.129-.034-.258-.06-.386-.026-.129-.062-.254-.094-.381-.028-.11-.052-.221-.085-.33-.038-.125-.085-.245-.129-.367-.039-.108-.075-.218-.119-.324-.048-.115-.103-.224-.156-.336-.052-.11-.101-.221-.159-.329-.058-.107-.123-.209-.186-.313-.063-.106-.123-.213-.192-.316-.078-.116-.165-.226-.249-.338-.063-.083-.121-.17-.188-.251a7.403 7.403 0 0 0-.498-.549l-.002-.002c-.02-.02-.042-.037-.063-.057a7.775 7.775 0 0 0-.486-.438c-.083-.068-.17-.126-.255-.19-.111-.083-.22-.169-.336-.246-.101-.068-.207-.126-.311-.189-.106-.063-.21-.129-.319-.188-.107-.057-.217-.105-.325-.156-.113-.053-.224-.109-.34-.157-.107-.044-.216-.08-.325-.119-.122-.044-.242-.09-.367-.128-.11-.033-.222-.057-.333-.085-.126-.032-.25-.066-.378-.092-.129-.025-.259-.041-.389-.059-.111-.016-.221-.037-.334-.047a7.198 7.198 0 0 0-.623-.031c-.037-.001-.073-.006-.11-.006h-.011a7.44 7.44 0 0 0-.746.039c-.099.01-.196.029-.294.043-.144.02-.289.038-.432.067-.116.023-.228.055-.341.084-.124.031-.248.059-.371.096-.111.034-.218.076-.327.115-.122.044-.246.085-.366.135-.1.042-.195.091-.292.136-.125.059-.25.115-.372.18-.091.049-.178.105-.267.158-.121.072-.243.141-.361.22-.096.065-.187.137-.28.207-.103.076-.208.148-.307.23a7.72 7.72 0 0 0-.474.43c-.023.023-.049.042-.073.066l-39.951 40.102a7.506 7.506 0 0 0 10.633 10.594l27.163-27.266.372 198.024a7.504 7.504 0 0 0 7.505 7.491h.015a7.505 7.505 0 0 0 7.491-7.519l-.415-216.147c0 .001 0 .001 0 0z"/>
  </g>
</symbol>

<symbol id="icon-project" viewBox="0 0 50 50">
  <path d="M24.2 12.04h-5V10.5h5zm16.12 1.42H19.2V15h21.12v-1.54zm0 2.95H19.2v1.55h21.12V16.4zM50 24.34v.12l-3.05 20.82c-.03 1.1-.9 1.97-1.95 1.97H4.4c-1.06 0-1.93-.88-1.96-1.98L0 27.3c0-1.14.88-2.05 1.96-2.05h.48v-10.2c0-1.1.88-2.03 1.96-2.03h10.8V2.76h21.5l7.75 8.07v2.2H45c1.08 0 1.95.9 1.95 2.03v7.24h1.1c1.07 0 1.95.9 1.95 2.03zm-5.55-9.76v7.73h1.02v-7.24c0-.27-.2-.5-.48-.5zM37.12 5.4v4.98h4.8zM16.68 4.3v20.95h8.6l.83-1.4c.93-1.53-.82 1.4.94-1.55v.02-.02h15.93V11.92h-6.6l-.73-.77V4.3H16.68zm-1.5 20.95c-10.44 16.62-5.22 8.3 0 0zm-11.26 0H15.2c.08-11.67 0 1.35 0-10.68H4.4c-.26 0-.48.22-.48.5zm44.6-.96c-.03-.26-.23-.46-.48-.46H27.87L26.1 26.8H1.97c-.25 0-.45.2-.47.44L3.9 45.2c0 .27.22.5.48.5H45c.26 0 .47-.23.47-.5v-.12l3.04-20.8z"/>
</symbol>

<symbol id="icon-trolley" viewBox="0 0 446.843 446.843" >
	<path d="M444.09 93.103a14.343 14.343 0 0 0-11.584-5.888H155.321c-7.92 0-14.337 6.417-14.337 14.337s6.417 14.337 14.337 14.337h257.537l-10.338 32.259H186.782c-7.92 0-14.337 6.417-14.337 14.337s6.417 14.337 14.337 14.337h206.543l-11.868 37.038H203.509c-7.92 0-14.337 6.417-14.337 14.34 0 7.92 6.417 14.337 14.337 14.337h168.759l-9.955 31.064H172.692L94.794 49.064a14.352 14.352 0 0 0-8.3-8.646L19.586 14.134c-7.374-2.887-15.695.735-18.591 8.1-2.891 7.369.73 15.695 8.1 18.591l60.768 23.872 74.381 214.399c-3.283 1.144-6.065 3.663-7.332 7.187l-21.506 59.739a11.928 11.928 0 0 0 1.468 10.916 11.95 11.95 0 0 0 9.773 5.078h11.044c-6.844 7.616-11.044 17.646-11.044 28.675 0 23.718 19.298 43.012 43.012 43.012s43.012-19.294 43.012-43.012c0-11.029-4.2-21.059-11.044-28.675h93.776c-6.847 7.616-11.048 17.646-11.048 28.675 0 23.718 19.294 43.012 43.013 43.012 23.718 0 43.012-19.294 43.012-43.012 0-11.029-4.2-21.059-11.043-28.675h13.433c6.599 0 11.947-5.349 11.947-11.948s-5.349-11.947-11.947-11.947H143.647l13.319-36.996c1.72.724 3.578 1.152 5.523 1.152h210.278a14.33 14.33 0 0 0 13.65-9.959l59.739-186.387a14.33 14.33 0 0 0-2.066-12.828zM169.659 409.807c-10.543 0-19.116-8.573-19.116-19.116s8.573-19.117 19.116-19.117 19.116 8.574 19.116 19.117-8.573 19.116-19.116 19.116zm157.708 0c-10.543 0-19.117-8.573-19.117-19.116s8.574-19.117 19.117-19.117c10.542 0 19.116 8.574 19.116 19.117s-8.574 19.116-19.116 19.116z"/>
</symbol>

<symbol id="icon-stats" viewBox="0 0 50 50">
  <path d="M43.1 2a5.76 5.76 0 0 0-5.75 5.76 5.76 5.76 0 0 0 2.3 4.58L32.2 32.07a5.76 5.76 0 0 0-1.08-.1 5.76 5.76 0 0 0-1.18.12l-5.88-10.85a5.76 5.76 0 0 0 .86-3.02 5.76 5.76 0 0 0-5.76-5.76 5.76 5.76 0 0 0-5.76 5.76 5.76 5.76 0 0 0 1.24 3.56L8.1 36.6a5.76 5.76 0 0 0-1.2-.12 5.76 5.76 0 0 0-5.77 5.76A5.76 5.76 0 0 0 6.9 48a5.76 5.76 0 0 0 5.75-5.76 5.76 5.76 0 0 0-1.68-4.06l6.4-14.48a5.76 5.76 0 0 0 1.8.3 5.76 5.76 0 0 0 2.37-.53l5.52 10.16a5.76 5.76 0 0 0-1.7 4.1 5.76 5.76 0 0 0 5.76 5.75 5.76 5.76 0 0 0 5.76-5.76 5.76 5.76 0 0 0-1.76-4.13l7.57-20.1a5.76 5.76 0 0 0 .4.02 5.76 5.76 0 0 0 5.77-5.76A5.76 5.76 0 0 0 43.1 2z"/>
</symbol>

<symbol id="icon-compass" viewBox="0 0 50 50">
  <path d="M25 2C12.32 2 2 12.32 2 25s10.32 23 23 23 23-10.32 23-23S37.68 2 25 2zm0 2.88c11.1 0 20.13 9.02 20.13 20.12 0 11.1-9.03 20.13-20.13 20.13S4.87 36.1 4.87 25 13.9 4.87 25 4.87zm9.86 8.64c-.15.02-.3.06-.43.13l-13.52 6.6c-.28.14-.5.38-.65.66l-6.6 13.53c-.28.55-.16 1.2.27 1.65.28.27.64.42 1.02.42.2 0 .43-.05.63-.15l13.5-6.6c.3-.14.53-.37.67-.66l6.6-13.53c.28-.55.17-1.2-.26-1.65-.33-.32-.78-.47-1.22-.4zm-2.93 4.55l-4.55 9.3-9.3 4.56 4.54-9.3 9.3-4.56z"/>
</symbol>


<symbol  id="icon-layers" viewBox="0 0 24 24">
  <path d="M21.698 10.658l2.302 1.342-12.002 7-11.998-7 2.301-1.342 9.697 5.658 9.7-5.658zm-9.7 10.657l-9.697-5.658-2.301 1.343 11.998 7 12.002-7-2.302-1.342-9.7 5.657zm12.002-14.315l-12.002-7-11.998 7 11.998 7 12.002-7z"/>
</symbol>

<!-- Folder Icons -->
<symbol  id="icon-folder" viewBox="0 0 24 24">
  <path d="M1 9V2h6c1.695 1.942 2.371 3 4 3h12v4H1zm-1 2l2 11h20l2-11H0z"/>
</symbol>
<symbol  id="icon-folder2" viewBox="0 0 24 24">
  <path d="M6.083 4C7.463 5.612 8.661 7 11 7h11v13H2V4h4.083zM7 2H0v20h24V5H11C9.371 5 8.695 3.942 7 2z"/>
</symbol>











<!-- Make curves straight to reduce size -->
<symbol id="icon-arrow-up2" viewBox="0 0 32 32">
  <path d="M27.4 12.6l-10-10c-.77-.8-2.03-.8-2.8 0l-10 10c-.8.77-.8 2.03 0 2.8s2.03.8 2.8 0L14 8.84V28c0 1.1.9 2 2 2s2-.9 2-2V8.83l6.6 6.58c.38.4.9.6 1.4.6s1.02-.2 1.4-.6c.8-.77.8-2.03 0-2.8z"/>
</symbol>

<symbol id="icon-arrow-right2" viewBox="0 0 32 32">
  <path d="M19.4 27.4l10-10c.8-.77.8-2.03 0-2.8l-10-10c-.77-.8-2.03-.8-2.8 0s-.8 2.03 0 2.8l6.57 6.6H4c-1.1 0-2 .9-2 2s.9 2 2 2h19.17l-6.58 6.6c-.4.38-.6.9-.6 1.4s.2 1.02.6 1.4c.77.8 2.03.8 2.8 0z"/>
</symbol>

<symbol id="icon-arrow-down2" viewBox="0 0 32 32">
  <path d="M27.4 19.4l-10 10c-.77.8-2.03.8-2.8 0l-10-10c-.8-.77-.8-2.03 0-2.8s2.03-.8 2.8 0l6.6 6.57V4c0-1.1.9-2 2-2s2 .9 2 2v19.17l6.6-6.58c.38-.4.9-.6 1.4-.6s1.02.2 1.4.6c.8.77.8 2.03 0 2.8z"/>
</symbol>

<symbol id="icon-arrow-left2" viewBox="0 0 32 32">
  <path d="M12.6 27.4l-10-10c-.8-.77-.8-2.03 0-2.8l10-10c.77-.8 2.03-.8 2.8 0s.8 2.03 0 2.8L8.84 14H28c1.1 0 2 .9 2 2s-.9 2-2 2H8.83l6.58 6.6c.4.38.6.9.6 1.4s-.2 1.02-.6 1.4c-.77.8-2.03.8-2.8 0z"/>
</symbol>
<!-- Arrows End -->


<symbol id="icon-open-link" viewBox="0 0 50 50">
  <path d="M38.7 3.85c-.53 0-1.05.27-1.36.75-.5.76-.27 1.78.5 2.27l5.94 3.87C28.94 12.97 23.2 28.38 22.96 29.07c-.3.85.13 1.78.98 2.1.2.06.37.1.56.1.67 0 1.3-.43 1.54-1.1.06-.15 5.55-14.5 18.9-16.16l-4.23 6.5c-.5.76-.27 1.77.5 2.27.27.18.58.26.9.26.52 0 1.05-.26 1.36-.74l6.27-9.65c.24-.36.33-.8.23-1.23-.1-.43-.34-.8-.7-1.04L39.6 4.12c-.28-.2-.6-.27-.92-.27zM7.4 9.62C3.3 9.62 0 12.92 0 17v21.26c0 4.07 3.32 7.38 7.4 7.38h34.2c4.08 0 7.4-3.3 7.4-7.38v-8.64c0-.9-.74-1.64-1.65-1.64-.9 0-1.64.73-1.64 1.64v8.64c0 2.26-1.83 4.1-4.1 4.1H7.4c-2.27 0-4.1-1.84-4.1-4.1V17c0-2.26 1.83-4.1 4.1-4.1h19.16c.9 0 1.64-.73 1.64-1.64 0-.9-.73-1.64-1.64-1.64H7.4z"/>
</symbol>


<symbol id="icon-bookmark" viewBox="0 0 50 50">
  <path d="M39.38 48c.13 0 .27-.02.4-.06.62-.2 1.03-.75 1.03-1.38V3.44c0-.8-.63-1.44-1.42-1.44H10.63c-.8 0-1.44.64-1.44 1.44v43.12c0 .63.4 1.2 1 1.38.6.18 1.27-.05 1.62-.58L25 27.6l13.18 19.76c.27.4.72.64 1.2.64zm-1.44-6.2L26.2 24.2c-.27-.4-.72-.64-1.2-.64s-.93.24-1.2.64L12.06 41.8V4.88h25.88z"/>
</symbol>


<symbol id="icon-flag" viewBox="0 0 50 50">
  <path d="M32.05 5c-2.47 0-4.92.5-7.3.98-2.35.48-4.57.93-6.8.93-1.72 0-3.26-.27-4.7-.85-.12-.06-.26-.08-.4-.08h-.05-.04c-.14 0-.28.02-.4.08-.03 0-.06.02-.08.03l-.16.08-.14.12-.06.05c-.1.1-.17.2-.22.34-.02.02-.02.05-.03.08-.05.14-.1.28-.1.42v36.61c0 .67.56 1.22 1.23 1.22.67 0 1.22-.55 1.22-1.22v-18.4c1.24.34 2.53.5 3.94.5 2.47 0 4.92-.48 7.3-.97 2.34-.46 4.56-.92 6.8-.92 1.72 0 3.25.3 4.68.87.38.15.8.1 1.14-.12.34-.23.54-.6.54-1V7.16c0-.5-.3-.94-.76-1.13C35.93 5.34 34.1 5 32.06 5zm3.93 17.03c-1.23-.33-2.53-.5-3.93-.5-2.47 0-4.92.5-7.3 1-2.34.47-4.57.92-6.8.92-1.42 0-2.72-.2-3.93-.58v-14c1.24.32 2.54.48 3.94.48 2.47 0 4.92-.5 7.3-.98 2.34-.48 4.56-.93 6.8-.93 1.4 0 2.7.2 3.92.6v14z"/>
</symbol>

<symbol id="icon-alarm" viewBox="0 0 50 50">
  <path d="M11.54 2.13C7.84 2.13 2 6.57 2 11.67v5.43h3.08L16.9 5.2V2.14zm21.5.07v3.08L44.9 17.1H48v-5.36c0-3.7-4.44-9.54-9.53-9.54zM13.8 4.45v.02l-9.5 9.55c.22-6.78 4.83-9.47 9.5-9.57zm22.3.07c6.77.22 9.47 4.83 9.57 9.5h-.03zM25.05 8.06c-10.85 0-19.7 8.83-19.7 19.7 0 4.43 1.5 8.53 4 11.83l-5.34 5.74 2.7 2.53 5.15-5.55c3.5 3.17 8.1 5.12 13.2 5.12 5.17 0 9.87-2.03 13.4-5.3l5.02 5.73 2.86-2.4-5.4-6.15c2.37-3.25 3.8-7.24 3.8-11.57 0-10.86-8.84-19.7-19.7-19.7zm0 3.08c9.2 0 16.6 7.42 16.6 16.6 0 9.2-7.4 16.62-16.6 16.62-9.2 0-16.6-7.42-16.6-16.6 0-9.2 7.4-16.62 16.6-16.62zm-2.1 1.36v14.7H12.74v3.1h13.3V12.5z"/>
</symbol>


<symbol id="icon-chat" viewBox="0 0 50 50">
  <path d="M2 37.72h27.23l10.4 10.16h1.87V37.72H48V2.12H2zm43.16-2.84h-6.5v8.35l-8.35-8.35H4.85V4.96h40.32v29.92z"/>
</symbol>

<symbol id="icon-filter" viewBox="0 0 50 50">
  <path d="M30.3 45.34H19.7V28.1L2 4.65h46L30.3 28.1zm-7.78-3.1h4.95V27.5l14.7-20H7.74l14.77 20z"/>
</symbol>





<symbol id="icon-like" viewBox="0 0 50 50">
  <path d="M48.97 24.36c0-2.26-1.8-4-4.17-4h-15c.95-2.23 2.67-6.9 2.67-11.7 0-5.5-2.75-6.66-5.07-6.66-1.43 0-3.5 1.1-3.5 3.05 0 .83-.14 8.2-4.65 12-4.8 4.02-6.16 5.07-8.8 5.07-3.06 0-8.5.07-8.5.07h-.92v21.45h10.04c.65 0 2.6.88 4.33 1.64 2.85 1.26 6.08 2.7 8.26 2.7h14.5c2.36 0 4.28-1.86 4.28-4.14 0-.93-.33-1.78-.87-2.47 1.73-.5 3-2.1 3-3.97 0-.95-.33-1.8-.87-2.5 1.7-.56 2.95-2.14 2.95-4.02 0-.93-.32-1.8-.85-2.5 1.8-.45 3.16-2.08 3.16-4.03zM44.8 26.2h-4.2v2.83h1.83c1.3 0 1.38.57 1.38 1.88 0 1.32-.06 1.9-1.37 1.9h-3.68v2.83h1.7c1.26 0 1.28.53 1.28 1.8 0 1.26-.02 1.8-1.3 1.8h-3.52v2.33l1.26.5c1.24.5 1.44.53 1.44 1.8 0 1.26-.1 1.3-1.44 1.3h-14.5c-1.78 0-4.96-1.42-7.5-2.55-2.5-1.1-4.1-1.8-5.1-1.8h-7.2V24.97c1.7-.02 4.3 0 6.6 0 3.4 0 6.2-2.5 10.98-6.5 5.04-4.23 5.3-10.7 5.3-12.2 0-.76.15-1.44.66-1.42.55.02 2.23-.6 2.23 4.2 0 6.08-3.07 11.75-3.1 11.82l.32 2.33h11.3c.02.02.04 0 .04 0h6.6c1.35 0 1.33-.07 1.33 1.16 0 1.3-.05 1.83-1.33 1.83z"/>
</symbol>

<symbol id="icon-refresh" viewBox="0 0 50 50">
  <path d="M41.2 28.96c0 9.63-6.58 16.2-16.2 16.2S8.8 38.6 8.8 28.96c0-9.6 6.54-16.15 16.13-16.2v6.7L40 11.35 24.93 2v7.93c-10.48.04-18.97 8.54-18.97 19.03C5.96 39.48 14.48 48 25 48c10.5 0 19.04-8.52 19.04-19.04H41.2zm-5.46-17.6l-8.37 3.84V6.35z"/>
</symbol>


<symbol id="icon-target" viewBox="0 0 50 50">
  <path d="M23.58 2v3.14c-9.85.7-17.75 8.6-18.44 18.44H2v2.84h3.14c.7 9.85 8.6 17.75 18.44 18.44V48h2.84v-3.14c9.85-.7 17.75-8.6 18.44-18.44H48v-2.84h-3.14c-.7-9.85-8.6-17.75-18.44-18.44V2h-2.84zm0 6v4h2.84V8c8.3.67 14.9 7.27 15.6 15.58H38v2.84h4c-.67 8.3-7.27 14.9-15.58 15.6V38h-2.84v4c-8.3-.67-14.9-7.27-15.6-15.58H12v-2.84H8c.67-8.3 7.27-14.9 15.58-15.6zM25 17.24c-4.26 0-7.75 3.5-7.75 7.75 0 4.26 3.5 7.75 7.75 7.75 4.26 0 7.75-3.5 7.75-7.75 0-4.26-3.5-7.75-7.75-7.75zm0 2.84c2.73 0 4.9 2.17 4.9 4.9 0 2.73-2.17 4.9-4.9 4.9-2.73 0-4.9-2.17-4.9-4.9 0-2.73 2.17-4.9 4.9-4.9z"/>
</symbol>

<symbol  id="icon-target2" viewBox="0 0 24 24">
  <path d="M6 12c0 2.206 1.794 4 4 4 1.761 0 3.242-1.151 3.775-2.734l2.224-1.291.001.025c0 3.314-2.686 6-6 6s-6-2.686-6-6 2.686-6 6-6c1.084 0 2.098.292 2.975.794l-2.21 1.283c-.248-.048-.503-.077-.765-.077-2.206 0-4 1.794-4 4zm4-2c-1.105 0-2 .896-2 2s.895 2 2 2 2-.896 2-2l-.002-.015 3.36-1.95c.976-.565 2.704-.336 3.711.159l4.931-2.863-3.158-1.569.169-3.632-4.945 2.87c-.07 1.121-.734 2.736-1.705 3.301l-3.383 1.964c-.29-.163-.621-.265-.978-.265zm7.995 1.911l.005.089c0 4.411-3.589 8-8 8s-8-3.589-8-8 3.589-8 8-8c1.475 0 2.853.408 4.041 1.107.334-.586.428-1.544.146-2.18-1.275-.589-2.69-.927-4.187-.927-5.523 0-10 4.477-10 10s4.477 10 10 10c5.233 0 9.521-4.021 9.957-9.142-.301-.483-1.066-1.061-1.962-.947z"/>
</symbol>



<symbol id="icon-help" viewBox="0 0 50 50">
  <path d="M25 2C12.32 2 2 12.32 2 25s10.32 23 23 23 23-10.32 23-23S37.68 2 25 2zm0 2.98c11.08 0 20.02 8.94 20.02 20.02S36.08 45.02 25 45.02 4.98 36.08 4.98 25 13.92 4.98 25 4.98zm-.08 7.96c-4.67 0-7.57 2.9-7.6 7.46h2.32c-.06-3.32 1.68-5.35 5.2-5.35 2.5 0 4.6 1.37 4.6 3.95 0 1.67-.9 3.03-2.1 4.15-2.45 2.27-3.13 4.14-3.26 7.25h2.46c.12-2.82.06-3.56 2.52-6.02 1.64-1.55 2.8-3.1 2.8-5.48 0-3.73-3.36-5.96-6.94-5.96zm.3 20.22c-1.08 0-1.96.87-1.96 1.95 0 1.1.88 1.96 1.95 1.96 1.1 0 1.96-.87 1.96-1.95 0-1.06-.87-1.94-1.95-1.94z"/>
</symbol>

<symbol  id="icon-error" viewBox="0 0 24 24">
  <path d="M16.971 0h-9.942l-7.029 7.029v9.941l7.029 7.03h9.941l7.03-7.029v-9.942l-7.029-7.029zm-4.971 19.25c-.69 0-1.25-.56-1.25-1.25s.56-1.25 1.25-1.25 1.25.56 1.25 1.25-.56 1.25-1.25 1.25zm.55-4.748c-.029.283-.266.498-.55.498s-.521-.215-.55-.498l-.801-8.01c-.08-.8.55-1.492 1.351-1.492s1.431.692 1.351 1.493l-.801 8.009z"/>
</symbol>

<symbol  id="icon-info" viewBox="0 0 24 24">
  <path d="M12 0c-6.627 0-12 5.373-12 12s5.373 12 12 12 12-5.373 12-12-5.373-12-12-12zm-.001 5.75c.69 0 1.251.56 1.251 1.25s-.561 1.25-1.251 1.25-1.249-.56-1.249-1.25.559-1.25 1.249-1.25zm2.001 12.25h-4v-1c.484-.179 1-.201 1-.735v-4.467c0-.534-.516-.618-1-.797v-1h3v6.265c0 .535.517.558 1 .735v.999z"/>
</symbol>



<symbol  id="icon-inbox" viewBox="0 0 24 24">
  <path d="M18.546 3h-13.069l-5.477 8.986v9.014h24v-9.014l-5.454-8.986zm-3.796 12h-5.5l-2.25-3h-4.666l4.266-7h10.82l4.249 7h-4.669l-2.25 3zm-9.75-4l.607-1h12.787l.606 1h-14zm12.18-3l.607 1h-11.573l.607-1h10.359zm-1.214-2l.606 1h-9.144l.607-1h7.931z"/>
</symbol>

<symbol  id="icon-light-bulb" viewBox="0 0 24 24">
  <path d="M19 6.734c0 4.672-4.25 7.079-4.25 12.266h-5.5c0-5.187-4.25-7.594-4.25-12.266 0-4.343 3.498-6.734 6.996-6.734 3.502 0 7.004 2.394 7.004 6.734zm-4.75 13.266h-4.5c-.276 0-.5.224-.5.5s.224.5.5.5h4.5c.276 0 .5-.224.5-.5s-.224-.5-.5-.5zm.25 2h-5l1.451 1.659c.19.216.464.341.753.341h.593c.288 0 .563-.125.752-.341l1.451-1.659z"/>
</symbol>


<symbol  id="icon-location" viewBox="0 0 24 24">
  <path d="M12 0c-4.198 0-8 3.403-8 7.602 0 4.198 3.469 9.21 8 16.398 4.531-7.188 8-12.2 8-16.398 0-4.199-3.801-7.602-8-7.602zm0 11c-1.657 0-3-1.343-3-3s1.343-3 3-3 3 1.343 3 3-1.343 3-3 3z"/>
</symbol>


<symbol  id="icon-lock" viewBox="0 0 24 24">
  <path d="M18 10v-4c0-3.313-2.687-6-6-6s-6 2.687-6 6v4h-3v14h18v-14h-3zm-10 0v-4c0-2.206 1.794-4 4-4s4 1.794 4 4v4h-8z"/>
</symbol>


<symbol  id="icon-medal3" viewBox="0 0 24 24">
  <path d="M12 14c2.206 0 4 1.794 4 4s-1.794 4-4 4-4-1.794-4-4 1.794-4 4-4zm0-2c-3.314 0-6 2.687-6 6s2.686 6 6 6 6-2.687 6-6-2.686-6-6-6zm1.236 6.452l1.264-1.214-1.736-.239-.764-1.577-.764 1.577-1.736.239 1.264 1.214-.308 1.725 1.544-.826 1.544.827-.308-1.726zm1.368-9.258l5.396-6.194-2-3h-12l-2 3 6 7h3.958l-5.958-7h8l-3.377 3.869 1.981 2.325z"/>
</symbol>


<symbol id="icon-tag" viewBox="0 0 50 50">
  <path d="M27.8 2L2 27.74 22.22 48 48 22.3V10.94L39.03 2zm10.17 3.03l6.92 6.9.26 9.65-22.94 22.4-16.2-16.24L29.12 4.9zM36.44 9.2c-2.15 0-3.92 1.77-3.92 3.92s1.77 3.92 3.92 3.92 3.92-1.77 3.92-3.92S38.6 9.2 36.44 9.2zm0 2.84c.6 0 1.08.46 1.08 1.08 0 .6-.47 1.08-1.08 1.08-.6 0-1.08-.47-1.08-1.08 0-.62.47-1.08 1.08-1.08z"/>
</symbol>


<symbol  id="icon-tag2" viewBox="0 0 24 24">
  <path d="M15.354 6h-3.554c-2.721-4.496-9.566-4.523-11.293-1.706-1.341 2.186.061 5.062 3.24 5.062 1.307 0 2.52-.593 4.253-.329v3.567l9.033 9.042 6.967-6.966-8.646-8.67zm-11.606 1.871c-1.996 0-2.738-1.6-1.956-2.835 1.076-1.701 5.756-1.94 8.19.964h-1.982v1.529c-1.922-.233-3.2.342-4.252.342zm9.207 2.645c-.817.817-2.206.394-2.446-.72 1.188.093 1.902-.723 1.795-1.708 1.071.285 1.445 1.634.651 2.428z"/>
</symbol>




<symbol  id="icon-time2" viewBox="0 0 24 24">
  <path d="M24 12c0 6.627-5.373 12-12 12s-12-5.373-12-12h2c0 5.514 4.486 10 10 10s10-4.486 10-10-4.486-10-10-10c-2.777 0-5.287 1.141-7.099 2.977l2.061 2.061-6.962 1.354 1.305-7.013 2.179 2.18c2.172-2.196 5.182-3.559 8.516-3.559 6.627 0 12 5.373 12 12zm-13-6v8h7v-2h-5v-6h-2z"/>
</symbol>



<symbol id="icon-gear" viewBox="0 0 512 512">
<path d="M256 151c-57.897 0-105 47.103-105 105s47.103 105 105 105 105-47.103 105-105-47.103-105-105-105zm0 180c-41.355 0-75-33.645-75-75s33.645-75 75-75 75 33.645 75 75-33.645 75-75 75z"/>
<path d="M500.582 211.434l-58.674-14.428a193.62 193.62 0 0 0-13.551-32.249l27.343-45.573a15 15 0 0 0-2.256-18.324l-42.426-42.426a15 15 0 0 0-18.324-2.256c-.38.228-30.777 18.466-45.626 27.355a194.037 194.037 0 0 0-32.052-13.434c-4.428-17.976-14.451-58.686-14.452-58.686A15 15 0 0 0 286 0h-60a15 15 0 0 0-14.565 11.414c-4.126 16.76-11.024 44.779-14.45 58.68a193.811 193.811 0 0 0-34.001 14.482l-24.869-14.921-22.462-13.477a15.001 15.001 0 0 0-18.324 2.256L54.901 100.86a15 15 0 0 0-2.256 18.324c.2.335 17.785 29.644 29.271 48.869a193.985 193.985 0 0 0-11.817 28.919c-20.002 4.976-58.223 14.35-58.671 14.46A15 15 0 0 0 0 226v60a15 15 0 0 0 11.429 14.568c.443.109 38.381 9.411 58.687 14.436a192.484 192.484 0 0 0 13.796 32.78l-26.194 43.66a15 15 0 0 0 2.256 18.324l42.427 42.427a14.999 14.999 0 0 0 18.324 2.256c.369-.222 29.463-17.678 43.746-26.227a194.004 194.004 0 0 0 32.547 13.692l14.416 58.66A14.996 14.996 0 0 0 226 512h60a15 15 0 0 0 14.566-11.418l14.427-58.669a190.952 190.952 0 0 0 33.257-14.128l44.444 26.667a15 15 0 0 0 18.324-2.256l42.426-42.427a15 15 0 0 0 2.256-18.324l-26.958-44.931a192.864 192.864 0 0 0 13.161-31.511c17.824-4.399 58.19-14.317 58.676-14.436A15 15 0 0 0 512 286v-60a15 15 0 0 0-11.418-14.566zM482 274.24c-17.32 4.257-48.723 11.979-54.72 13.479l-1.131.283a15.001 15.001 0 0 0-10.719 10.653 162.956 162.956 0 0 1-16.942 40.548 15.004 15.004 0 0 0 .069 15.312l25.393 42.322-25.863 25.863-41.942-25.165a14.999 14.999 0 0 0-15.501.035c-13 7.885-27.109 13.892-41.938 17.854a14.997 14.997 0 0 0-10.614 10.597 434.656 434.656 0 0 0-1.658 6.397L274.241 482h-36.479l-10.813-44.042-2.916-11.664a14.997 14.997 0 0 0-10.686-10.855 163.97 163.97 0 0 1-41.449-17.447 15 15 0 0 0-15.285-.018c-3.23 1.908-27.254 16.313-41.282 24.728l-25.865-25.865 24.661-41.104a14.999 14.999 0 0 0 .022-15.395c-7.784-13.063-13.685-27.073-17.535-41.643a15 15 0 0 0-10.863-10.719c-10.737-2.684-39.564-9.767-55.752-13.741v-36.473c16.342-4.015 45.537-11.199 55.762-13.786a15.002 15.002 0 0 0 10.812-10.671 163.963 163.963 0 0 1 15.63-38.286 14.998 14.998 0 0 0-.177-15.053c-7.25-12.166-20.08-33.577-27.632-46.172l25.865-25.866 12.42 7.452 32.44 19.463a14.998 14.998 0 0 0 15.472-.049 163.992 163.992 0 0 1 42.756-18.232 14.997 14.997 0 0 0 10.68-10.836c.282-1.121 9.071-36.815 13.728-55.726h36.49c4.915 19.958 13.621 55.312 13.724 55.722a15 15 0 0 0 10.685 10.845 164.051 164.051 0 0 1 41.05 17.208 14.998 14.998 0 0 0 15.276-.021c4.208-2.498 28.881-17.293 43.106-25.827l25.864 25.864-25.795 42.991a15 15 0 0 0-.043 15.367 163.565 163.565 0 0 1 17.308 41.141 14.998 14.998 0 0 0 10.57 10.604c3.097.839 6.373 1.657 6.428 1.671L482 237.758v36.482z"/>
</symbol>

</defs>
</svg>
